<svg width="236" height="60" viewBox="0 0 236 60" fill="none" xmlns="http://www.w3.org/2000/svg">
<g clip-path="url(#clip0_163_648)">
<path d="M75.896 7.45397H93.1556V54.224H75.896V7.45397ZM83.7873 43.024H85.317V19.694H83.7873V43.024ZM125.997 8.48397V19.944H122.727V22.314H111.671V19.944H108.02V22.314H97.2383V19.944H94.5165V8.48397H97.2383V6.57397H108.02V8.48397H111.671V6.57397H122.727V8.48397H125.997ZM94.5165 23.564H125.997V54.584H94.5165V23.564ZM104.539 32.384V36.204H106.501V32.384H104.539ZM104.539 45.814H106.501V41.994H104.539V45.814ZM115.268 32.384H113.306V36.204H115.268V32.384ZM115.268 45.814V41.994H113.306V45.814H115.268Z" fill="#FAFAFA"/>
<path d="M180.783 41.6241V54.3741H130.354V41.6241H135.524L133.023 25.6741V23.7641H149.85L152.193 41.6241H158.459L160.801 23.7641H177.628V25.6741L175.117 41.6241H180.783ZM180.403 22.0641H130.787V8.85407H145.873V6.17407H165.264V8.85407H180.403V22.0641Z" fill="#FAFAFA"/>
<path d="M201.798 42.9142H205.776V51.8442H201.798V54.6342H189.107V51.8442H185.077V42.9142H189.107V41.1042H185.077V19.2142H189.107V17.4542H185.077V8.83417H189.107V7.08417H201.798V8.83417H205.723V17.4542H201.798V19.2142H205.723V41.1042H201.798V42.9142ZM197.23 26.2442H193.422V27.6942H197.23V26.2442ZM193.411 33.9342H197.22V32.4842H193.411V33.9342ZM207.084 21.2342H220.05V54.5342H206.926V49.7342L209.816 48.7542V47.0042L208.35 47.5742H207.042V40.2442L209.816 39.3142V38.5442L207.042 37.9242V31.4242H208.35L209.816 31.7842V29.9242H207.094V21.2542L207.084 21.2342ZM235.02 11.5342V19.9442H225.325L221.949 17.8842H220.039L216.937 19.9442H206.968V11.5342L215.788 6.52417H226.19L235.009 11.5342H235.02ZM221.189 21.2342H234.967V54.5342H221.674V49.7342L224.069 48.7542V47.3642L222.539 47.9342H221.231V40.2442L224.059 39.3142V38.5442L221.168 37.9242V31.4242H222.529L224.059 31.7842V29.9242H221.168V21.2542L221.189 21.2342Z" fill="#FAFAFA"/>
<path d="M31.0904 0.76416C13.9153 0.76416 0 13.9542 0 30.2342C0 46.5142 13.9153 59.7042 31.0904 59.7042C48.2656 59.7042 62.1808 46.5142 62.1808 30.2342C62.1808 13.9542 48.255 0.76416 31.0904 0.76416ZM45.4066 42.5842C44.2144 44.5642 42.5054 46.0842 40.2793 47.1442C38.0533 48.2042 35.1099 48.7442 31.4808 48.7442C27.8516 48.7442 25.1403 48.3542 23.0936 47.5642C21.047 46.7742 19.359 45.6242 18.0403 44.0942C16.7215 42.5742 15.7087 40.6642 14.9913 38.3642L25.8155 37.0042C26.2375 39.0742 26.9021 40.5042 27.7989 41.3042C28.6956 42.1042 29.835 42.5042 31.217 42.5042C32.6729 42.5042 33.8756 42.0042 34.8462 40.9942C35.8168 39.9842 36.2915 38.6442 36.2915 36.9642C36.2915 35.2842 35.8273 33.9242 34.8989 32.9842C33.9705 32.0442 32.7045 31.5742 31.1115 31.5742C30.257 31.5742 29.0859 31.7742 27.5984 32.1742L28.1576 24.8442C28.7589 24.9242 29.2336 24.9742 29.5712 24.9742C30.9849 24.9742 32.1771 24.5442 33.116 23.6842C34.0549 22.8242 34.5402 21.8142 34.5402 20.6342C34.5402 19.4542 34.1815 18.6142 33.4747 17.9342C32.7678 17.2642 31.7867 16.9242 30.5524 16.9242C29.318 16.9242 28.242 17.2942 27.4402 18.0242C26.6384 18.7542 26.1003 20.0342 25.8155 21.8642L15.5821 20.1242C16.4367 17.0342 18.0719 14.6642 20.4878 13.0142C22.9037 11.3642 26.3324 10.5442 30.7634 10.5442C35.8484 10.5442 39.5303 11.4442 41.7985 13.2442C44.0667 15.0442 45.2061 17.3042 45.2061 20.0242C45.2061 21.6242 44.7419 23.0642 43.8241 24.3642C42.9063 25.6642 41.5137 26.7942 39.6464 27.7642C41.155 28.1142 42.3049 28.5342 43.1067 29.0042C44.4043 29.7642 45.4066 30.7542 46.124 31.9942C46.8414 33.2242 47.2001 34.7042 47.2001 36.4142C47.2001 38.5642 46.6093 40.6242 45.4171 42.6042L45.4066 42.5842Z" fill="#FAFAFA"/>
</g>
<defs>
<clipPath id="clip0_163_648">
<rect width="235.02" height="58.93" fill="white" transform="translate(0 0.76416)"/>
</clipPath>
</defs>
</svg>
